<?xml version="1.0" encoding="UTF-8" standalone="no"?>
<!-- Created with Inkscape (http://www.inkscape.org/) -->

<svg
   xmlns:dc="http://purl.org/dc/elements/1.1/"
   xmlns:cc="http://creativecommons.org/ns#"
   xmlns:rdf="http://www.w3.org/1999/02/22-rdf-syntax-ns#"
   xmlns:svg="http://www.w3.org/2000/svg"
   xmlns="http://www.w3.org/2000/svg"
   xmlns:sodipodi="http://sodipodi.sourceforge.net/DTD/sodipodi-0.dtd"
   xmlns:inkscape="http://www.inkscape.org/namespaces/inkscape"
   width="420mm"
   height="297mm"
   viewBox="0 0 420 297"
   version="1.1"
   id="SVGRoot"
   inkscape:version="0.92.4 (f8dce91, 2019-08-02)"
   sodipodi:docname="drawing.svg">
  <defs
     id="defs3762">
    <inkscape:path-effect
       effect="skeletal"
       id="path-effect3985"
       is_visible="true"
       pattern="M 0,5 C 0,2.24 2.24,0 5,0 7.76,0 10,2.24 10,5 10,7.76 7.76,10 5,10 2.24,10 0,7.76 0,5 Z"
       copytype="single_stretched"
       prop_scale="0.26458333"
       scale_y_rel="false"
       spacing="0"
       normal_offset="0"
       tang_offset="0"
       prop_units="false"
       vertical_pattern="false"
       fuse_tolerance="0" />
    <inkscape:path-effect
       effect="simplify"
       id="path-effect3983"
       is_visible="true"
       steps="1"
       threshold="0.00186047"
       smooth_angles="360"
       helper_size="0"
       simplify_individual_paths="false"
       simplify_just_coalesce="false"
       simplifyindividualpaths="false"
       simplifyJustCoalesce="false" />
    <inkscape:path-effect
       effect="skeletal"
       id="path-effect3979"
       is_visible="true"
       pattern="M 0,5 C 0,2.24 2.24,0 5,0 7.76,0 10,2.24 10,5 10,7.76 7.76,10 5,10 2.24,10 0,7.76 0,5 Z"
       copytype="single_stretched"
       prop_scale="0.26458333"
       scale_y_rel="false"
       spacing="0"
       normal_offset="0"
       tang_offset="0"
       prop_units="false"
       vertical_pattern="false"
       fuse_tolerance="0" />
    <inkscape:path-effect
       effect="simplify"
       id="path-effect3977"
       is_visible="true"
       steps="1"
       threshold="0.00186047"
       smooth_angles="360"
       helper_size="0"
       simplify_individual_paths="false"
       simplify_just_coalesce="false"
       simplifyindividualpaths="false"
       simplifyJustCoalesce="false" />
    <inkscape:path-effect
       effect="skeletal"
       id="path-effect3973"
       is_visible="true"
       pattern="M 0,5 C 0,2.24 2.24,0 5,0 7.76,0 10,2.24 10,5 10,7.76 7.76,10 5,10 2.24,10 0,7.76 0,5 Z"
       copytype="single_stretched"
       prop_scale="0.26458333"
       scale_y_rel="false"
       spacing="0"
       normal_offset="0"
       tang_offset="0"
       prop_units="false"
       vertical_pattern="false"
       fuse_tolerance="0" />
    <inkscape:path-effect
       effect="simplify"
       id="path-effect3971"
       is_visible="true"
       steps="1"
       threshold="0.00186047"
       smooth_angles="360"
       helper_size="0"
       simplify_individual_paths="false"
       simplify_just_coalesce="false"
       simplifyindividualpaths="false"
       simplifyJustCoalesce="false" />
    <inkscape:path-effect
       effect="skeletal"
       id="path-effect3967"
       is_visible="true"
       pattern="M 0,5 C 0,2.24 2.24,0 5,0 7.76,0 10,2.24 10,5 10,7.76 7.76,10 5,10 2.24,10 0,7.76 0,5 Z"
       copytype="single_stretched"
       prop_scale="0.26458333"
       scale_y_rel="false"
       spacing="0"
       normal_offset="0"
       tang_offset="0"
       prop_units="false"
       vertical_pattern="false"
       fuse_tolerance="0" />
    <inkscape:path-effect
       effect="simplify"
       id="path-effect3965"
       is_visible="true"
       steps="1"
       threshold="0.00186047"
       smooth_angles="360"
       helper_size="0"
       simplify_individual_paths="false"
       simplify_just_coalesce="false"
       simplifyindividualpaths="false"
       simplifyJustCoalesce="false" />
    <inkscape:path-effect
       effect="skeletal"
       id="path-effect3877"
       is_visible="true"
       pattern="M 0,5 C 0,2.24 2.24,0 5,0 7.76,0 10,2.24 10,5 10,7.76 7.76,10 5,10 2.24,10 0,7.76 0,5 Z"
       copytype="single_stretched"
       prop_scale="0.26458333"
       scale_y_rel="false"
       spacing="0"
       normal_offset="0"
       tang_offset="0"
       prop_units="false"
       vertical_pattern="false"
       fuse_tolerance="0" />
    <inkscape:path-effect
       effect="simplify"
       id="path-effect3875"
       is_visible="true"
       steps="1"
       threshold="0.00446809"
       smooth_angles="360"
       helper_size="0"
       simplify_individual_paths="false"
       simplify_just_coalesce="false"
       simplifyindividualpaths="false"
       simplifyJustCoalesce="false" />
    <inkscape:path-effect
       effect="skeletal"
       id="path-effect3871"
       is_visible="true"
       pattern="M 0,5 C 0,2.24 2.24,0 5,0 7.76,0 10,2.24 10,5 10,7.76 7.76,10 5,10 2.24,10 0,7.76 0,5 Z"
       copytype="single_stretched"
       prop_scale="0.26458333"
       scale_y_rel="false"
       spacing="0"
       normal_offset="0"
       tang_offset="0"
       prop_units="false"
       vertical_pattern="false"
       fuse_tolerance="0" />
    <inkscape:path-effect
       effect="simplify"
       id="path-effect3869"
       is_visible="true"
       steps="1"
       threshold="0.00446809"
       smooth_angles="360"
       helper_size="0"
       simplify_individual_paths="false"
       simplify_just_coalesce="false"
       simplifyindividualpaths="false"
       simplifyJustCoalesce="false" />
    <inkscape:path-effect
       effect="skeletal"
       id="path-effect3865"
       is_visible="true"
       pattern="M 0,5 C 0,2.24 2.24,0 5,0 7.76,0 10,2.24 10,5 10,7.76 7.76,10 5,10 2.24,10 0,7.76 0,5 Z"
       copytype="single_stretched"
       prop_scale="0.26458333"
       scale_y_rel="false"
       spacing="0"
       normal_offset="0"
       tang_offset="0"
       prop_units="false"
       vertical_pattern="false"
       fuse_tolerance="0" />
    <inkscape:path-effect
       effect="simplify"
       id="path-effect3863"
       is_visible="true"
       steps="1"
       threshold="0.00446809"
       smooth_angles="360"
       helper_size="0"
       simplify_individual_paths="false"
       simplify_just_coalesce="false"
       simplifyindividualpaths="false"
       simplifyJustCoalesce="false" />
    <inkscape:path-effect
       effect="skeletal"
       id="path-effect3859"
       is_visible="true"
       pattern="M 0,5 C 0,2.24 2.24,0 5,0 7.76,0 10,2.24 10,5 10,7.76 7.76,10 5,10 2.24,10 0,7.76 0,5 Z"
       copytype="single_stretched"
       prop_scale="0.26458333"
       scale_y_rel="false"
       spacing="0"
       normal_offset="0"
       tang_offset="0"
       prop_units="false"
       vertical_pattern="false"
       fuse_tolerance="0" />
    <inkscape:path-effect
       effect="simplify"
       id="path-effect3857"
       is_visible="true"
       steps="1"
       threshold="0.00446809"
       smooth_angles="360"
       helper_size="0"
       simplify_individual_paths="false"
       simplify_just_coalesce="false"
       simplifyindividualpaths="false"
       simplifyJustCoalesce="false" />
    <inkscape:path-effect
       effect="skeletal"
       id="path-effect3853"
       is_visible="true"
       pattern="M 0,5 C 0,2.24 2.24,0 5,0 7.76,0 10,2.24 10,5 10,7.76 7.76,10 5,10 2.24,10 0,7.76 0,5 Z"
       copytype="single_stretched"
       prop_scale="0.26458333"
       scale_y_rel="false"
       spacing="0"
       normal_offset="0"
       tang_offset="0"
       prop_units="false"
       vertical_pattern="false"
       fuse_tolerance="0" />
    <inkscape:path-effect
       effect="simplify"
       id="path-effect3851"
       is_visible="true"
       steps="1"
       threshold="0.00446809"
       smooth_angles="360"
       helper_size="0"
       simplify_individual_paths="false"
       simplify_just_coalesce="false"
       simplifyindividualpaths="false"
       simplifyJustCoalesce="false" />
  </defs>
  <sodipodi:namedview
     id="base"
     pagecolor="#ffffff"
     bordercolor="#666666"
     borderopacity="1.0"
     inkscape:pageopacity="0.0"
     inkscape:pageshadow="2"
     inkscape:zoom="0.98994949"
     inkscape:cx="758.44997"
     inkscape:cy="563.29659"
     inkscape:document-units="mm"
     inkscape:current-layer="layer1"
     showgrid="false"
     inkscape:window-width="1850"
     inkscape:window-height="1016"
     inkscape:window-x="70"
     inkscape:window-y="27"
     inkscape:window-maximized="1" />
  <metadata
     id="metadata3765">
    <rdf:RDF>
      <cc:Work
         rdf:about="">
        <dc:format>image/svg+xml</dc:format>
        <dc:type
           rdf:resource="http://purl.org/dc/dcmitype/StillImage" />
        <dc:title></dc:title>
      </cc:Work>
    </rdf:RDF>
  </metadata>
  <g
     inkscape:label="Layer 1"
     inkscape:groupmode="layer"
     id="layer1">
    <path
       style="fill:#000000;stroke:none;stroke-width:0.26458332px;stroke-linecap:butt;stroke-linejoin:miter;stroke-opacity:1"
       d="m 180.13966,186.08314 c 0.076,0.15008 -9.95011,7.04097 -29.98238,6.07666 0,0 -10e-6,0 -10e-6,0 -4.66715,-0.20153 -11.32816,0.008 -16.91088,-2.32914 -2.60179,-1.09627 -5.67849,-2.28439 -8.24036,-4.36751 -4.68263,-3.82467 -9.18463,-9.39877 -10.26451,-16.31557 -1.27526,-8.67299 0.17274,-17.90317 3.77904,-26.7463 2.31987,-5.81019 5.95687,-11.71924 11.36944,-15.61144 1.03935,-0.7474 2.13745,-1.41547 3.29621,-1.99272 5.69876,-2.79474 11.92883,-4.29134 18.06995,-3.95409 2.53989,0.14776 5.16865,0.0215 7.74984,-0.0662 5.57638,-0.18313 10.9312,1.5532 15.30735,4.33153 0,0 10e-6,10e-6 10e-6,10e-6 6.03308,3.81984 10.46057,9.31177 12.95098,15.19166 3.31528,7.94232 3.27129,17.7562 3.69987,24.1654 0.21347,3.04484 -0.50737,5.92637 -1.82223,8.26211 -2.80235,4.93155 -6.30432,8.11144 -8.22972,11.21025 -0.24915,0.34818 -0.30594,0.91873 -0.53334,1.50054 -0.43072,0.93742 -1.31287,1.34529 -1.93872,1.56612 -1.03714,0.40244 -1.85328,1.17729 -2.66971,1.61627 -2.54346,1.38583 -2.86888,-0.53343 -3.11439,-0.13216 0.054,-0.0883 1.24046,0.65247 2.80605,-0.3844 0.70164,-0.46717 1.41838,-1.27671 2.63519,-1.87327 0.56349,-0.30646 1.27495,-0.63727 1.36362,-1.12576 0.14262,-0.43763 0.18412,-1.03851 0.53306,-1.70734 1.85373,-3.32729 5.30715,-6.7502 7.7578,-11.43003 1.10779,-2.09696 1.67146,-4.6775 1.42165,-7.35741 -0.61434,-6.4781 -0.74121,-16.19174 -3.96421,-23.42478 -2.38516,-5.43497 -6.58068,-10.50544 -12.20139,-13.99611 0,0 0,0 0,0 -4.03539,-2.49832 -8.93094,-4.05958 -13.90603,-3.84835 -2.56032,0.10446 -5.26464,0.24283 -7.98853,0.10132 -5.61484,-0.3088 -11.40087,1.11847 -16.76588,3.73075 -1.02857,0.49173 -2.00587,1.07544 -2.93414,1.73977 -4.8297,3.45646 -8.18229,8.98856 -10.47251,14.47593 -3.46565,8.48736 -4.92695,17.24518 -3.77222,25.4084 0.79315,6.05975 4.94857,11.2349 9.27515,14.94744 2.11937,1.8331 5.02135,2.97374 7.64416,4.15876 4.89364,2.23694 11.41718,2.14274 16.1732,2.49744 0,0 0,0 0,-1e-5 18.87547,1.32358 29.72577,-4.61953 29.87859,-4.31777 z"
       id="path3849"
       inkscape:connector-curvature="0"
       inkscape:path-effect="#path-effect3851;#path-effect3853"
       inkscape:original-d="m 180.13966,186.08314 c -8.55319,4.30128 -18.39993,6.22387 -28.0633,5.34539 -8.26301,-0.75119 -12.53063,0.18419 -20.57975,-3.47451 -1.48167,-0.67348 -2.9521,-1.10821 -4.27632,-2.13816 -4.57286,-3.55666 -9.11165,-8.37515 -10.69078,-14.16528 -3.32116,-12.17759 1.97419,-32.17565 10.95805,-41.15951 6.21119,-6.21119 14.10934,-7.45122 22.45064,-8.28535 2.2052,-0.22052 4.47655,0.22052 6.68174,0 3.63172,-0.36317 7.68437,-0.11124 11.22532,1.06908 4.83662,1.6122 10.38964,5.73237 13.63075,9.6217 6.91309,8.29571 8.55262,19.56798 8.55262,29.93419 0,2.34914 0.3156,4.35027 -0.26727,6.68174 -0.54592,2.18368 -4.43418,7.81451 -5.87993,9.6217 -0.59769,0.74711 -3.91805,4.88475 -4.00904,5.61266 -0.0564,0.45076 0.56291,0.99144 0.26727,1.33635 -0.42209,0.49244 -1.2636,0.3068 -1.87089,0.53453 -1.87299,0.70238 -2.97298,3.19073 -5.61266,1.87089" />
    <path
       style="fill:#000000;stroke:none;stroke-width:0.26458332px;stroke-linecap:butt;stroke-linejoin:miter;stroke-opacity:1"
       d="m 154.48178,93.87515 c 0.73025,0.0014 1.26305,31.43342 1.18928,70.16077 -0.0738,38.72736 -0.72629,70.15713 -1.45654,70.15574 -0.73025,-0.001 -1.26305,-31.43342 -1.18928,-70.16078 0.0738,-38.72735 0.72629,-70.157121 1.45654,-70.15573 z"
       id="path3855"
       inkscape:connector-curvature="0"
       inkscape:path-effect="#path-effect3857;#path-effect3859"
       inkscape:original-d="m 154.48178,93.87515 -0.26726,140.3165" />
    <path
       style="fill:#000000;stroke:none;stroke-width:0.26458332px;stroke-linecap:butt;stroke-linejoin:miter;stroke-opacity:1"
       d="m 76.171816,156.68349 c 0.01297,-0.73013 37.082034,-0.66416 82.743424,0.14727 45.6614,0.81143 82.70939,2.06255 82.69642,2.79269 -0.013,0.73013 -37.08203,0.66416 -82.74343,-0.14727 -45.6614,-0.81143 -82.709389,-2.06255 -82.696414,-2.79269 z"
       id="path3861"
       inkscape:connector-curvature="0"
       inkscape:path-effect="#path-effect3863;#path-effect3865"
       inkscape:original-d="m 76.171816,156.68349 165.439834,2.93996" />
    <path
       style="fill:#000000;stroke:none;stroke-width:0.26458332px;stroke-linecap:butt;stroke-linejoin:miter;stroke-opacity:1"
       d="m 232.52448,153.74352 c 0.20194,-0.15088 1.18525,0.35933 2.59285,1.26329 0,0 0,0 0,0 1.12835,0.70559 3.94966,2.39142 5.85014,4.1215 -0.0526,-0.0246 0.0205,5e-5 0.19522,0.11379 0.0541,0.0352 0.11767,0.0788 0.18986,0.13194 0.42068,0.093 0.72685,0.73293 0.73568,1.85357 -1.16478,1.32162 -1.94738,1.52936 -1.95107,1.18437 -0.55412,0.074 -0.84549,0.003 -0.8454,0.06 -2.40177,1.15782 -3.39853,1.71741 -4.70102,2.66495 -0.80414,0.58236 -1.30382,1.01536 -1.53171,0.90102 -0.22969,-0.11524 -0.20989,-0.84983 0.45661,-1.88814 0.85419,-1.33253 2.34242,-2.66917 4.60308,-3.93097 0.78937,-0.35292 1.42422,-0.41071 1.7997,-0.41403 0.46008,-0.32074 0.73903,-0.11245 -0.37409,0.71565 0.10198,0.78643 0.12406,1.11069 0.25848,0.99776 -0.007,-0.004 -0.0247,-0.0137 -0.0534,-0.0306 -0.0935,-0.055 -0.29537,-0.18271 -0.57745,-0.41963 -1.89064,-1.78378 -3.95981,-3.29934 -5.21954,-4.67282 0,0 0,0 0,0 -1.24531,-1.35246 -1.76034,-2.4033 -1.42793,-2.65165 z"
       id="path3867"
       inkscape:connector-curvature="0"
       inkscape:path-effect="#path-effect3869;#path-effect3871"
       inkscape:original-d="m 232.52448,153.74352 c 1.27091,1.85609 8.68743,6.81421 8.28536,7.21628 -0.22039,0.2204 -1.53889,0.10127 -1.87088,0.26727 -2.49444,1.24722 -4.95896,2.9689 -5.87993,4.81085" />
    <path
       style="fill:#000000;stroke:none;stroke-width:0.26458332px;stroke-linecap:butt;stroke-linejoin:miter;stroke-opacity:1"
       d="m 145.66189,101.09143 c -0.22173,-0.21337 0.25057,-1.163326 1.12225,-2.621879 0.76988,-1.288234 2.29477,-3.7585 4.60932,-5.448063 1.07178,-0.588376 1.86764,-0.600015 2.19712,-0.65679 -0.002,0.01172 0.002,0.0153 0.0122,0.01178 0.0535,-0.01911 0.28495,-0.245908 0.7561,-0.4954 0.50892,-0.448152 1.47167,-0.306983 2.54512,0.593062 0.53337,1.079114 0.63236,1.912601 0.92022,2.345425 0.79953,1.352796 2.32139,3.066212 2.92244,3.83083 0.80189,1.009136 1.14933,1.708913 0.95146,1.906503 -0.18854,0.18827 -0.88494,-0.13759 -1.94116,-0.808669 -0.98207,-0.622816 -2.63188,-1.819972 -3.9461,-3.56439 -0.6548,-0.958331 -0.90452,-1.940348 -1.22456,-2.510145 0.81378,0.395616 1.08347,0.646272 1.08612,0.491588 -0.1306,0.09591 -0.45616,0.36302 -1.04933,0.618023 -0.10993,0.04726 -0.22884,0.09403 -0.3572,0.139221 -0.92858,0.273295 -1.44928,0.143735 -1.4098,0.253239 -1.66919,1.028668 -3.74306,3.422164 -4.73045,4.366394 -1.2842,1.228059 -2.22174,1.782109 -2.4637,1.549269 z"
       id="path3873"
       inkscape:connector-curvature="0"
       inkscape:path-effect="#path-effect3875;#path-effect3877"
       inkscape:original-d="m 145.66189,101.09143 c 1.98636,-2.059649 4.46515,-4.999691 6.41447,-6.949011 0.49046,-0.490461 1.82067,-0.217059 2.40542,-0.80181 0.0659,-0.06594 1.00127,-0.602353 1.06908,-0.534537 0.45624,0.456237 0.61351,1.722064 1.06908,2.405425 1.69055,2.535822 3.25285,3.520114 5.07812,5.345393" />
    <path
       style="fill:#000000;stroke:none;stroke-width:0.26458332px;stroke-linecap:butt;stroke-linejoin:miter;stroke-opacity:1"
       d="m 147.53278,84.787985 c 0.14432,0.07346 -0.78812,-0.622435 0.29675,-1.643036 0.88768,-0.209592 1.02764,0.0063 0.30183,0.03251 -0.3552,0.461065 -0.28921,-0.05456 0.42806,-0.769169 1.16609,-0.287213 1.14691,0.0045 0.19358,0.151929 -0.32766,0.361597 -0.17369,-0.152201 0.65199,-0.891756 0.76509,-0.287163 1.16102,-0.177128 0.68143,-0.136691 -0.51877,0.694381 -0.53652,0.279734 0.45469,-0.720395 0.53563,-0.193893 0.85277,-0.230565 0.87031,-0.206897 0,0 0,0 0,0 -0.0669,-0.241609 -0.25583,0.06379 -0.7891,0.92766 -0.054,-0.303992 0.40841,-0.823575 1.51801,-1.406761 -0.63385,0.186639 -1.0429,0.579218 -1.25906,1.234143 0,0 0,-2e-6 0,-2e-6 -0.13432,-0.219959 0.0175,-0.687754 0.52542,-1.359128 0.47703,-0.375927 0.74975,-0.444643 0.58132,-0.384343 0.26658,-0.30496 0.5185,-0.656238 0.8153,-1.062198 0.29352,-0.394007 0.57363,-0.693173 0.80707,-0.958972 -0.13417,-0.0323 -0.0465,-0.213432 0.3147,-0.448505 0.2977,-0.193761 0.77647,-0.420724 1.45491,-0.625799 -0.18719,-0.269956 -0.46474,0.282948 -1.08248,1.594837 0.30605,-1.317949 0.86453,-1.941607 1.53978,-1.862808 0,0 -1e-5,-2e-6 -1e-5,-2e-6 -0.33269,-0.175421 -0.66976,0.454232 -1.15408,1.865708 0,0 -1e-5,1.6e-5 -1e-5,1.6e-5 -0.0309,-1.672217 0.48931,-2.432779 1.19962,-2.243017 -0.44943,0.182389 -0.6431,0.358931 -0.66258,0.652306 0.63073,-1.01873 1.0881,-1.377318 1.21087,-1.223576 -0.58764,0.580598 -0.84057,0.663407 -0.55333,0.41359 0.44477,-0.711907 0.97752,-1.04271 1.53528,-1.003769 -0.15928,-0.08411 -0.45991,0.08745 -0.94759,0.469182 0.19561,-0.262707 0.41683,-0.608024 0.78625,-1.009079 1.46664,-1.14011 0.80671,-0.26366 0.21724,0.202405 -0.22849,0.287457 -0.14935,-0.212868 0.88917,-1.301965 0.69973,-0.556703 0.60514,-0.05829 -0.35972,1.007464 0,0 0,1e-6 0,1e-6 0.0186,0.04524 -0.006,-0.0708 -0.0246,-0.328766 -0.006,-0.609219 0.59703,-0.992681 1.68874,-1.061803 0,0 -1e-5,1e-6 -1e-5,1e-6 -0.99367,0.201672 -1.39979,0.381817 -1.36475,0.693536 0.40616,-1.028919 0.82145,-1.309053 0.99062,-1.179927 0.12695,-0.0348 0.23245,-0.06193 0.29092,-0.105404 -0.0391,-0.0093 0.25823,-0.430327 0.77386,-0.779845 0.86596,-0.309028 0.5601,0.107558 0.73855,0.0093 0,0 0,0 0,0 -0.0311,0.174539 0.38055,-0.323289 0.64034,-0.364865 0.18196,0.01796 0.23312,0.129429 0.23321,0.193167 1.2e-4,0.07743 -0.0756,0.152057 -0.0914,0.238343 0.002,-0.121681 0.2286,0.243108 -0.10418,0.65904 0,1e-6 0,1e-6 0,1e-6 -0.37097,0.33436 -0.89899,0.4682 -0.81965,0.510402 0.0388,-0.04843 0.38441,-0.179129 0.015,0.377583 -0.19694,0.375215 -0.49428,0.698387 -0.8665,0.908732 -0.19495,0.359871 -0.19733,0.112616 0.16668,-0.454109 0.0335,0.519137 -0.50739,0.928514 -1.68587,1.014647 0,0 -1e-5,0 -1e-5,0 0.96176,-0.151292 1.45743,-0.381916 1.46509,-0.832797 -0.001,-0.04819 0.0389,0.03498 0.0787,0.295543 0,0 0,2e-6 0,2e-6 -0.95327,1.321237 -1.41712,1.699429 -0.96512,1.245378 0.49145,-0.771006 0.97684,-0.906573 0.48827,9.75e-4 -1.08909,1.086141 -1.46997,1.197852 -0.62288,0.618223 -0.12572,0.15892 -0.25831,0.451823 -0.50855,0.841667 -0.58227,0.520408 -1.06935,0.721971 -1.39747,0.617673 0.40796,0.0211 0.78426,-0.240091 1.18808,-0.804989 0.16973,0.119634 -0.11839,0.629104 -1.08117,1.343103 -0.15111,0.243859 -0.0392,-0.03241 0.54057,-0.762044 -0.0863,0.673201 -0.56481,1.211486 -1.4019,1.466496 0.38115,0.252936 0.47588,-0.235401 0.61218,-1.607303 0,0 -1e-5,1.8e-5 -1e-5,1.8e-5 -0.40996,1.543912 -0.92958,2.229112 -1.41472,2.037445 0,0 0,-3e-6 0,-3e-6 0.50059,0.06034 0.86844,-0.463968 1.23211,-1.614221 -0.53219,1.559028 -1.15357,2.190406 -1.6054,1.900336 0.38824,-0.22622 0.64785,-0.298526 0.75214,-0.268642 0.12677,0.03633 0.0211,0.221703 -0.34591,0.45329 -0.28631,0.324131 -0.53485,0.570365 -0.70091,0.786252 -0.31748,0.409198 -0.65578,0.823005 -1.05466,1.226274 -0.59492,0.513295 -0.93798,0.61488 -0.93438,0.604543 0.3708,-0.56659 0.51549,-0.838044 0.40104,-0.889138 0,0 0,-10e-7 0,-10e-7 -0.19988,0.791783 -0.71468,1.285157 -1.4834,1.453772 0.8437,-0.618292 1.24052,-0.850902 1.17475,-0.894371 -0.54489,1.127381 -1.07027,1.513302 -1.3912,1.295117 0,0 0,0 0,0 -0.32562,0.05258 -0.31912,-0.02046 -0.0858,-0.07322 0.56344,-0.783782 0.68579,-0.491466 -0.21779,0.456613 -0.88495,0.35695 -1.51049,0.296986 -1.16271,0.190736 0.39454,-0.556305 0.54525,-0.362703 -0.0841,0.309915 -1.28591,0.415841 -1.60855,0.236292 -0.82472,0.113171 0.34661,-0.555932 0.44025,-0.276845 -0.20842,0.377059 -0.95968,0.219748 -1.33598,0.01316 -0.67159,-0.05009 -0.13957,-0.552374 -0.62076,0.639116 -0.81681,0.539331 z"
       id="path3963"
       inkscape:connector-curvature="0"
       inkscape:path-effect="#path-effect3965;#path-effect3967"
       inkscape:original-d="m 147.53278,84.787985 c 0.17818,-0.356359 0.29548,-0.75034 0.53454,-1.069078 0.1069,-0.142544 0.40854,0.125992 0.53454,0 0.13363,-0.133633 0.13363,-0.400905 0.26727,-0.534538 0.12599,-0.125992 0.40854,0.125992 0.53453,0 0.13364,-0.133636 0.13364,-0.400904 0.26727,-0.53454 0.22273,-0.222724 0.84636,-0.04454 1.06908,-0.267269 0.13364,-0.133636 0.13364,-0.400905 0.26727,-0.53454 0.0891,-0.08909 0.71272,-0.178179 0.80181,-0.267269 0.063,-0.063 -0.063,-0.204274 0,-0.267269 0.063,-0.063 0.20427,0.063 0.26727,0 0.063,-0.063 -0.063,-0.204274 0,-0.267269 0.10992,-0.109918 0.63071,-0.44899 0.80181,-0.53454 0.13822,-0.06911 1.06071,-1.327984 1.33635,-1.603616 0.29845,-0.298461 0.69468,-0.881883 1.06907,-1.069078 0.0797,-0.03984 0.20428,0.063 0.26727,0 0.063,-0.063 -0.063,-0.204274 0,-0.267271 0.063,-0.063 0.20428,0.063 0.26727,0 0.063,-0.063 -0.063,-0.204272 0,-0.267269 0.13364,-0.133636 0.40091,-0.133636 0.53454,-0.267269 0.13364,-0.133636 0.13364,-0.400905 0.26727,-0.534541 0.063,-0.06299 0.20428,0.063 0.26727,0 0.13364,-0.133633 0.13364,-0.400904 0.26727,-0.534537 0.063,-0.063 0.20427,0.06299 0.26727,0 0.16166,-0.161661 0.49871,-0.917528 0.80181,-1.069078 0.0797,-0.03984 0.20427,0.06299 0.26727,0 0.0891,-0.08909 0.17818,-0.712719 0.26727,-0.801809 0.063,-0.063 0.20427,0.063 0.26727,0 0.12599,-0.125992 -0.126,-0.408546 0,-0.534538 0.063,-0.063 0.20427,0.06299 0.26727,0 0.063,-0.063 -0.063,-0.204274 0,-0.267272 0.22272,-0.222723 0.57908,-0.311814 0.8018,-0.534537 0.22273,-0.222727 0.31182,-0.579086 0.53454,-0.80181 0.0891,-0.08909 0.71272,-0.178178 0.80181,-0.267268 0.20203,-0.202026 0.11595,-0.534541 0.53454,-0.534541" />
    <path
       style="fill:#000000;stroke:none;stroke-width:0.26458332px;stroke-linecap:butt;stroke-linejoin:miter;stroke-opacity:1"
       d="m 148.86913,69.553623 c 0.0443,-0.160067 0.42911,-0.485768 1.19873,-0.225045 l 0,0 c 0.30099,0.174433 0.54339,0.414296 0.64825,0.638403 v 0 c 0.18922,0.150404 0.13602,0.155085 -0.13346,-0.165202 l 0,0 c -0.62389,-0.793566 -0.33212,-0.63723 0.81592,1.200178 l 0,0 c 0.16978,-0.164178 0.0268,-0.44774 -0.49601,-1.022303 l 0,0 c 0.002,-0.03254 0.26777,-0.06709 0.89581,0.187119 l 0,0 c 0.53053,0.459544 0.77244,0.815759 0.72637,0.940672 l 0,0 0,0 0,0 c 0.0689,-0.03664 -0.0454,-0.146706 -0.35587,-0.423919 l 0,0 c 0.16555,0.0426 0.4907,0.168347 0.93336,0.490089 l 0,0 c 0.54521,1.065899 0.65493,1.489917 0.487,1.103263 l 0,0 0,-10e-7 0,0 c -1.77092,-1.225017 -1.8355,-1.685897 -0.2046,-0.817846 l 0,0 c 0.59898,1.06981 0.73188,1.626829 0.45905,1.585546 l 0,0 c 0.34761,-0.192976 -0.051,-0.683379 -1.18405,-1.572735 l 0,0 c -0.0962,-0.0773 0.2711,-0.01153 1.09788,0.325314 l 0,0 1e-5,2e-6 0,0 c 0.74969,0.656258 0.61232,1.545157 -0.4875,2.500717 l 0,0 c -0.40379,0.06545 -0.5916,0.07427 -0.55509,0.04668 l 0,0 c -0.32656,-0.211831 -0.0727,-0.640588 0.78557,-1.24408 -0.003,0.0072 -0.003,0.0072 -0.003,0.0072 -0.009,-0.02555 -0.0157,-0.0519 -0.0223,-0.07797 -0.0565,-0.321561 -0.0455,-0.614298 0.023,-0.863173 0.0142,-0.05151 0.0308,-0.10101 0.0497,-0.148389 0.41903,-0.03622 0.15245,0.06267 -0.96531,0.143153 1.50105,-0.192662 2.25456,0.369384 2.16293,1.481411 l 0,0 c 0.0132,0.676376 -0.13841,0.472493 -0.21725,-0.487483 l 0,0 c -1.9452,-1.039568 -1.73506,-1.156964 0.34813,0.16642 l 0,0 c 0,0 0,6e-6 0,6e-6 1.28366,1.151509 0.59416,1.092576 -1.58829,-0.408541 l 0,0 c 0.52007,-0.254397 1.17248,-0.01996 1.84453,0.685084 l 0,0 c 0,10e-7 0,10e-7 0,10e-7 0.29266,0.501003 0.13018,0.46346 -0.0721,0.145338 l 0,0 c -0.2774,-0.218687 0.29337,0.05373 1.00658,0.978367 l 0,10e-7 c 1.1174,1.052537 0.42958,0.96452 -1.35756,-0.310239 l 0,0 c 0.41645,-0.243121 1.00671,0.03098 1.618,0.752791 l 0,1e-6 c 0.10141,0.404609 0.0731,0.619853 0.066,0.669473 l 0,0 c -1.31423,-0.651513 -1.3044,-0.917419 0.1395,-0.09724 l 0,0 c 0.48477,1.355134 0.0118,0.671956 -0.17968,0.178101 l 0,0 0,10e-7 c 0.28544,0.736044 0.33569,0.839721 0.50449,1.19473 l 0,0 c -0.002,-0.0067 -0.004,0.02877 -0.0213,0.05364 0.12678,-0.186029 -0.21013,0.362033 -0.0443,0.0939 0,-4e-6 -0.028,0.02165 -0.0681,0.0805 -0.0148,0.02172 -0.0503,0.04373 -0.0534,0.03322 l 0,0 c -0.2546,-0.03764 -0.70728,-0.147368 -1.30735,-0.213705 l 0,0 0,0 c -0.49085,-0.969334 -0.49414,-1.240136 -0.26088,-0.423011 l 0,0 c 1.25756,0.60027 1.03241,0.715842 -0.44516,-0.173776 l 0,0 c -0.17856,-0.347229 -0.26274,-0.627218 -0.3265,-0.681846 l 0,0 c 0.54525,0.536398 0.89001,0.785974 1.11056,0.612471 l 0,0 c -2.00905,-1.244334 -2.45528,-1.694055 -1.45714,-0.854831 l 0,10e-7 c 1.55992,1.260186 -0.81032,-0.265932 -0.50738,-0.01633 l 0,0 c -0.54721,-0.642078 -0.64557,-0.920031 -0.58998,-0.848499 0,0 0,0 0,0 l 0,0 c 0.57649,0.521944 0.9814,0.725406 1.30329,0.545518 l 0,0 c -2.38061,-1.451095 -2.87386,-1.912944 -1.68787,-0.953136 0,0 0,5e-6 0,5e-6 l 0,0 c 2.04803,1.151755 1.76066,1.290039 -0.24455,0.09028 l 0,0 c -0.20433,-1.205021 -0.16467,-1.594444 -0.11759,-1.196941 l 0,0 c -0.0619,0.91203 0.48643,1.250889 1.81041,1.164949 -1.24879,0.175699 -1.76438,0.126164 -1.48889,0.0088 -0.018,-0.06399 -0.0384,-0.130345 -0.061,-0.199199 -0.10932,-0.332198 -0.27087,-0.720154 -0.46974,-1.172715 -0.0124,-0.03138 -0.0249,-0.06297 -0.0363,-0.09589 0,10e-7 0,-10e-7 0,-10e-7 0.91767,-0.646584 1.24901,-1.046178 0.98915,-1.253775 l 0,0 c 0.12074,-0.02214 0.0195,-5.22e-4 -0.30322,0.04298 l 0,0 c -0.92651,0.90837 -1.08228,1.546149 -0.46988,2.092029 l 0,0 1e-5,10e-7 0,0 c 0.67456,0.209294 0.79611,0.315327 0.50504,0.236765 l 0,0 c -1.23485,-0.891185 -1.63061,-1.520957 -1.25332,-1.809973 l 0,0 c -0.23512,-0.159574 -0.0528,0.242331 0.44896,1.237864 l 0,0 c 1.4365,0.725395 1.06537,0.535951 -0.75572,-0.91273 l 0,0 0,-2e-6 0,0 c -0.20028,-0.621905 0.0176,-0.437844 0.39292,0.471572 l 0,0 c 0.0633,-0.0074 -0.0825,-0.06402 -0.34154,-0.232079 l 0,0 c -0.55361,-0.397232 -0.79597,-0.7714 -0.80327,-1.056385 l 0,0 0,-1e-6 0,0 c -0.0953,-0.09337 0.0252,-0.04316 0.37001,0.318449 l 0,0 c 0.18631,0.0049 -0.0251,-0.01148 -0.45549,-0.205431 l 0,0 c -0.71842,-0.645059 -0.86929,-1.18303 -0.63635,-1.529761 l 0,0 c 1.25022,1.705452 1.01892,1.91956 0.27132,1.100602 l 0,0 c -0.58014,-0.46781 -0.69149,-0.782494 -0.62732,-0.908008 l 0,0 c -0.0244,-0.10365 0.0562,-0.13753 0.11287,-0.122733 l 0,0 c -0.1356,-0.353012 -0.53429,-0.64653 -0.47009,-0.878637 z"
       id="path3969"
       inkscape:connector-curvature="0"
       inkscape:path-effect="#path-effect3971;#path-effect3973"
       inkscape:original-d="m 148.86913,69.553623 c 1.34085,0.350277 0.88187,0.614604 1.33634,1.069079 0.063,0.06299 0.20428,-0.063 0.26727,0 0.063,0.06299 -0.063,0.204271 0,0.267268 0.0891,0.08909 0.71272,0.178179 0.80181,0.267269 0.13364,0.133636 0.13364,0.400905 0.26727,0.534541 0.1642,0.164203 0.62282,0.176569 0.80181,0.534537 0.0398,0.07969 -0.063,0.204274 0,0.267272 0.063,0.06299 0.20427,-0.063 0.26727,0 0.063,0.06299 -0.063,0.204271 0,0.267269 0.063,0.06299 0.20427,-0.063 0.26727,0 0.55299,0.552989 -0.84504,-0.02162 0.26727,0.534537 0.0797,0.03984 0.20427,-0.06299 0.26727,0 0.12599,0.125992 -0.126,0.408549 0,0.534541 0.063,0.06299 0.20427,-0.063 0.26727,0 0.063,0.06299 -0.063,0.204274 0,0.267269 0.063,0.063 0.20427,-0.063 0.26727,0 0.13363,0.133635 0.13363,0.400904 0.26727,0.53454 0.22272,0.222723 0.57908,0.311814 0.80181,0.534538 0.063,0.063 -0.063,0.204274 0,0.267268 0.063,0.063 0.20427,-0.06299 0.26726,0 0.0891,0.08909 0.17818,0.712719 0.26727,0.80181 0.063,0.063 0.20428,-0.063 0.26727,0 0.063,0.063 -0.063,0.204274 0,0.267268 0.0104,0.01045 0.87064,0.702522 0.97446,0.754415" />
    <path
       style="fill:#000000;stroke:none;stroke-width:0.26458332px;stroke-linecap:butt;stroke-linejoin:miter;stroke-opacity:1"
       d="m 248.29339,154.8126 c -0.0221,-0.18984 0.38526,-0.36891 0.69998,-0.70548 0,0 0,0 0,0 -0.21993,0.24326 -0.40388,0.38273 -0.20299,0.58453 -0.14801,-0.0684 -0.38859,-0.072 -0.7628,-0.16146 0.20567,0.11556 0.42914,-0.0704 0.88536,-0.67847 0.0704,0.21888 0.15719,0.43053 0.2633,0.43685 0.20607,0.17374 0.60663,0.3802 1.11052,0.88527 0.22006,0.17575 0.41656,0.57421 0.49569,1.2204 0,0 0,0 0,0 -0.47855,-0.8313 -0.88738,-1.21735 -1.31334,-1.12493 0,0 0,-1e-5 0,-1e-5 0.25563,-0.29384 0.82745,-0.005 1.63005,0.96123 0,0 0,1e-5 0,1e-5 0.0753,0.72697 -0.0714,1.75239 -0.27271,-0.0738 -1.19885,-0.66807 -0.9619,-0.73561 0.44566,0.20267 0.34762,0.51957 0.56202,1.00298 0.74493,1.41672 0.27549,0.60349 0.4459,1.14404 0.66145,1.51857 0.003,0.0446 0.092,0.12533 0.23483,0.27054 0.22508,0.22878 0.56655,0.60069 0.89702,1.2037 0.26962,0.58546 0.6191,1.16687 0.90667,2.00435 -0.72362,-0.63932 -0.89704,-0.90737 -0.64899,-0.65885 1.27318,1.1186 1.50208,1.89285 0.94327,2.0978 -0.0591,-1.02625 -0.15553,-1.42843 -0.46243,-1.33267 -0.2944,-0.59414 0.27839,-0.0473 1.09333,1.42664 0.0328,0.006 -0.0467,-0.13589 -0.17753,-0.44626 0.43311,0.52704 0.45729,1.0304 0.20561,0.65462 -0.54905,-0.26295 -0.16651,-0.0916 0.87429,0.7388 0.012,0.0376 0.22577,1.13658 0.0255,0.49037 -0.75193,-0.40633 -0.98766,-0.54854 -0.82582,-0.37274 0.57389,-0.0137 1.00858,0.33486 1.26108,0.97246 0.0394,0.9521 -0.22405,0.64152 -0.30119,-0.0703 -0.54767,-0.33547 -0.0376,-0.18266 0.60105,0.56849 0.0821,0.64507 -0.10668,1.31853 -0.17681,0.41955 0,0 0,0 0,0 -0.51568,-0.27487 -0.63597,-0.36291 -0.51737,-0.23831 0.4095,-0.009 0.70146,0.25738 0.85135,0.67451 -0.0356,0.77776 -0.22848,0.25631 -0.22918,0.24149 -0.52859,-0.20938 -0.58082,-0.26568 -0.43259,-0.14739 0.18714,-0.12606 0.45786,0.0883 0.63035,0.37502 -0.12214,0.16559 -0.19787,0.27745 -0.3176,0.2769 -0.0964,-4.5e-4 -0.22272,-0.0996 -0.2988,-0.33074 0.18223,0.1854 0.329,0.38523 0.39562,0.33531 0.0276,0.1626 -0.17034,0.26249 -0.78996,-0.0854 -0.13061,-0.4613 -0.0758,-0.85182 -0.11844,-0.60619 0.14355,0.2885 0.30786,0.47201 0.57874,0.49323 -0.0115,0.1466 -0.29555,0.11679 -0.89004,-0.27843 0,0 0,0 0,0 -0.21035,-0.81542 -0.0898,-1.21607 -0.0993,-0.54801 0.7836,0.58583 0.007,0.39688 -0.54555,-0.0676 -0.26719,-1.0361 -0.21017,-1.46487 -0.19045,-0.91803 0.24593,0.50628 0.5508,0.77555 0.99192,0.79045 0.0324,0.20129 -0.36813,0.11242 -1.19656,-0.40679 -0.30601,-0.55035 -0.37507,-0.91817 -0.37547,-0.86893 0.93366,0.58677 1.04479,0.91485 0.23953,0.5399 -0.89163,-0.57743 -1.23976,-1.1783 -1.22335,-1.23952 -0.28063,-0.51185 -0.37694,-0.9218 -0.31927,-1.17222 0.8524,1.20081 0.91229,1.72697 0.33997,1.0421 -0.54675,-0.005 -0.90514,-0.64682 -0.85537,-1.91781 -0.45093,-0.0445 -0.12804,0.30868 0.86861,1.37584 -0.006,0.1947 -0.47331,-0.062 -1.29247,-0.94799 -0.17897,-0.45885 -0.54368,-0.99463 -0.90219,-1.73749 0.0192,-0.0542 -0.17496,-0.18991 -0.46285,-0.50922 -0.18516,-0.20535 -0.40337,-0.48152 -0.62036,-0.85128 -0.3435,-0.67576 -0.5371,-1.31533 -0.70359,-1.74991 -0.19569,-0.4772 -0.30188,-0.82763 -0.4525,-1.07793 1.25054,0.71253 1.11064,0.86484 -0.26235,-0.0127 -0.35182,-1.59332 -0.23415,-1.88611 -0.17195,-0.98419 0,0 0,10e-6 0,10e-6 0.77393,0.82661 1.15897,1.11755 1.27892,0.85669 0,0 0,-1e-5 0,-1e-5 -0.55983,0.12543 -1.11942,-0.31381 -1.59163,-1.28059 0,0 0,0 0,0 0.0937,0.32544 0.10696,0.44139 0.12405,0.382 -0.1332,-0.22773 -0.52478,-0.53392 -0.9034,-1.00159 -0.46827,-0.62637 -0.57934,-1.27022 -0.52128,-1.78347 0.45284,-0.87379 0.99496,-1.11707 1.43044,-0.92217 0.3742,0.17336 0.75888,0.41347 1.07688,0.76116 0.47147,0.44339 0.24885,1.01487 -0.21777,1.36495 0,0 0,0 0,0 -0.77123,0.15731 -1.12479,-0.14624 -1.13968,-0.27422 z"
       id="path3975"
       inkscape:connector-curvature="0"
       inkscape:path-effect="#path-effect3977;#path-effect3979"
       inkscape:original-d="m 248.29339,154.8126 c 2.49451,-0.23163 -0.26727,-1.30071 -0.26727,-1.06908 0,1.3623 0.72792,1.3546 1.60362,2.40543 0.057,0.0684 -0.063,0.20427 0,0.26727 0.063,0.063 0.20427,-0.063 0.26727,0 0.12599,0.12599 -0.126,0.40855 0,0.53454 0.063,0.063 0.20427,-0.063 0.26726,0 0.33614,0.33613 1.05901,2.38527 1.33635,2.93996 0.2568,0.5136 0.81229,0.82276 1.06908,1.33635 0.17921,0.35843 0.8585,1.92758 1.06908,2.13816 0.063,0.063 0.20427,-0.063 0.26727,0 0.12599,0.12599 -0.12599,0.40854 0,0.53454 0.13363,0.13363 0.4009,0.13363 0.53454,0.26726 0.063,0.063 -0.0398,0.18759 0,0.26727 0.0156,0.0313 0.75606,1.02334 0.80181,1.06908 0.063,0.063 0.20427,-0.063 0.26726,0 0.0891,0.0891 0.17819,0.71272 0.26728,0.80181 0.063,0.063 0.20427,-0.063 0.26726,0 0.126,0.12599 -0.12599,0.40855 0,0.53454 0.13364,0.13363 0.40091,0.13363 0.53454,0.26727 0.12599,0.12599 -0.12599,0.40855 0,0.53454 0.063,0.063 0.20428,-0.063 0.26727,0 0.126,0.12599 -0.12599,0.40855 0,0.53454 0.35636,0.35636 0.26727,-0.44545 0.26727,0.26727" />
    <path
       style="fill:#000000;stroke:none;stroke-width:0.26458332px;stroke-linecap:butt;stroke-linejoin:miter;stroke-opacity:1"
       d="m 245.62069,166.30519 c -0.25197,-0.19046 0.0139,-1.34863 1.2334,-2.81598 0,0 0,0 0,0 0.0663,-0.2232 0.41048,-0.82337 1.60938,-1.22021 0.21289,-0.1165 0.32434,-0.0585 -0.53442,0.4268 0,0 0,0 0,0 0.10483,-0.26291 0.35647,-0.56996 0.80348,-0.86297 0.62028,-0.40422 1.13569,-0.51068 1.06708,-0.63488 0.005,-0.35296 0.0739,-0.0831 -0.0478,0.88193 0.22971,-1.5473 0.62413,-2.19948 0.89824,-1.90306 0.44445,-0.23342 0.677,-0.25958 0.56059,-0.24357 -0.50398,1.00962 -0.704,1.32218 -0.48219,0.99787 0.17664,-0.76884 0.85615,-1.26796 2.0102,-1.4272 -0.85574,-0.069 -1.21748,-0.098 -1.12395,0.0564 0,0 0.007,-0.006 0.007,-0.006 0.691,-0.58464 1.35996,-1.20006 2.02949,-1.77514 0.28772,-0.24598 0.60715,-0.62564 1.23439,-1.04342 0.14736,-0.094 1.15618,-0.54884 0.3328,-0.0313 -0.0221,0.016 0.0623,-0.46123 1.27152,-1.14563 0,0 10e-6,0 10e-6,0 1.09247,0.26864 1.52041,0.66784 1.35943,1.07373 l 0,0 c 0,0 0,0 0,0 -0.29922,-0.006 -0.59766,-0.0509 -0.89063,-0.13228 l 0,0 0,0 c -0.0327,0.003 -0.076,0.0183 -0.0914,0.017 0.002,5.4e-4 0.002,5.4e-4 0.002,5.4e-4 -0.004,-0.003 -0.0105,-0.0102 -0.0165,-0.0169 0,0 0,-1e-5 0,-1e-5 -0.17758,-0.22665 -0.35977,-0.2449 -0.65039,-0.1547 -0.11284,-0.0466 0.14552,-0.49184 0.76229,-1.0645 0.49728,-0.13048 0.55047,-2.5e-4 0.52949,0.0109 -0.50557,0.85732 -0.41813,0.45738 0.26592,-0.31036 0,0 0,0 0,0 -1.16111,-0.52847 1.82819,0.28582 1.10336,0.007 0.27538,0.50005 0.17165,0.68744 0.0103,0.70835 -0.12761,0.0358 -0.21736,0.0198 -0.26973,0.007 0,0 0,0 0,0 -0.0602,-0.0275 -0.13046,-0.0669 -0.15439,-0.0909 -0.0378,-0.0379 -0.0455,-0.0869 -0.0389,-0.18475 0,0 0,0 0,0 0.0154,-0.0605 0.0479,-0.15192 0.0286,-0.21088 -0.10676,-0.0381 -0.11563,0.0301 0.0625,0.47433 -0.26629,0.0298 0.65678,0.18463 -0.28006,0.49035 0,0 0,0 0,0 1.00057,-1.44368 0.24281,0.0784 0.0688,0.3208 -0.40835,0.26131 -0.77378,0.35839 -0.78069,0.39511 0.36581,-0.47267 0.65814,-0.65672 0.51427,-0.41303 -0.31517,0.42131 -0.7423,0.68262 -1.15271,0.72941 0,0 0,0 0,0 -0.0123,9.8e-4 -0.0242,0.002 -0.0382,-0.001 0,0 0,0 0,0 -0.0516,-0.0225 -0.0729,-0.0662 -0.10464,-0.10361 l 0,0 0,0 c -0.29099,-0.15683 -0.58621,-0.27809 -0.88987,-0.36026 0,0 -1e-5,0 -1e-5,0 l 0,0 c -0.16924,0.27571 0.18525,0.5077 1.14641,0.80848 0,0 1e-5,0 1e-5,0 1.28205,-1.46041 -0.26374,0.87073 0.003,0.57535 -0.64167,0.56124 -0.99866,0.69475 -0.77018,0.56356 -0.16516,0.1198 -0.36956,0.47053 -0.83685,0.9289 -0.59487,0.60777 -1.28561,1.29736 -2.04822,1.94533 0,0 -0.008,0.007 -0.008,0.007 -0.10289,0.3216 -0.72952,0.45486 -1.81095,0.26771 1.04324,-0.21713 1.6391,-0.61838 1.83219,-1.26412 0.24324,-0.1745 0.10372,0.3323 -0.51918,1.43315 -0.58972,0.38376 -0.97161,0.48881 -1.05059,0.50773 0.0226,0.41196 0.0585,-0.0637 0.38638,-1.35998 -0.006,1.27033 -0.24124,1.81682 -0.44382,1.70491 -0.83851,0.76445 -1.57805,0.95866 -1.89596,1.05098 0.11859,-0.1206 0.1434,-0.12728 0.0685,-0.0833 0,0 0,0 0,0 -0.88463,0.65281 -1.30157,0.77612 -1.2338,0.62536 0.23823,-0.31607 0.0242,0.0895 -0.51704,0.41119 0,0 0,0 0,0 -1.36259,0.93045 -2.18543,1.68552 -2.52012,1.43254 z"
       id="path3981"
       inkscape:connector-curvature="0"
       inkscape:path-effect="#path-effect3983;#path-effect3985"
       inkscape:original-d="m 245.62069,166.30519 c 0.59169,-0.80126 2.04494,-2.49245 2.93997,-2.93996 0.0797,-0.0399 0.20427,0.063 0.26727,0 0.17993,-0.17993 0.14096,-0.33776 0.53453,-0.53454 0.4314,-0.2157 1.34588,-0.5536 1.60362,-1.06908 0.0398,-0.0797 -0.063,-0.20427 0,-0.26727 0.15491,-0.15491 0.91417,-0.37963 1.06908,-0.53454 0.063,-0.063 -0.063,-0.20427 0,-0.26727 0.063,-0.063 0.18759,0.0398 0.26727,0 0.27466,-0.13733 2.87172,-2.60445 3.20723,-2.93996 0.14087,-0.14087 0.39368,-0.12641 0.53454,-0.26728 0.22273,-0.22272 0.31182,-0.57908 0.53454,-0.8018 0.55299,-0.55299 -0.0216,0.84504 0.53454,-0.26727 0.0398,-0.0797 -0.063,-0.20427 0,-0.26727 0.0891,-0.0891 0.71272,-0.17818 0.80181,-0.26727 0.063,-0.063 -0.063,-0.20427 0,-0.26727 0.005,-0.005 0.80181,-0.32666 0.80181,-0.26727 0,0.12599 -0.17818,0.17818 -0.26727,0.26727" />
  </g>
</svg>
